<svg xmlns="http://www.w3.org/2000/svg" width="900" height="880" viewBox="0 0 900 880">
<rect width="900" height="880" fill="#ffffff"/>
<style>
    .title { font-family: Arial, Helvetica, sans-serif; font-size: 18px; font-weight: bold; fill: #1e293b; }
    .chart-title { font-family: Arial, Helvetica, sans-serif; font-size: 14px; font-weight: bold; fill: #1e293b; }
    .subtitle { font-family: Arial, Helvetica, sans-serif; font-size: 11px; fill: #64748b; }
    .axis-label { font-family: Arial, Helvetica, sans-serif; font-size: 11px; fill: #64748b; }
    .axis-title { font-family: Arial, Helvetica, sans-serif; font-size: 12px; fill: #1e293b; font-weight: bold; }
    .legend-text { font-family: Arial, Helvetica, sans-serif; font-size: 11px; fill: #1e293b; }
    .note { font-family: Arial, Helvetica, sans-serif; font-size: 10px; fill: #64748b; font-style: italic; }
    .data-label { font-family: Arial, Helvetica, sans-serif; font-size: 10px; font-weight: bold; }
    .summary-title { font-family: Arial, Helvetica, sans-serif; font-size: 12px; font-weight: bold; fill: #1e293b; }
    .summary-text { font-family: Arial, Helvetica, sans-serif; font-size: 11px; fill: #1e293b; }
  </style>
<text x="80" y="25" class="title">UCCP Compression: Token Savings Benchmark</text>
<text x="80" y="42" class="subtitle">Measured with tiktoken cl100k_base on realistic generated test data</text>
<line x1="730" y1="18" x2="750" y2="18" stroke="#3b82f6" stroke-width="3"/><circle cx="740" cy="18" r="3" fill="#3b82f6"/><text x="756" y="18" class="legend-text" dominant-baseline="central">HTML Pages</text>
<line x1="730" y1="36" x2="750" y2="36" stroke="#f59e0b" stroke-width="3"/><circle cx="740" cy="36" r="3" fill="#f59e0b"/><text x="756" y="36" class="legend-text" dominant-baseline="central">JSON Responses</text>
<line x1="730" y1="54" x2="750" y2="54" stroke="#22c55e" stroke-width="3"/><circle cx="740" cy="54" r="3" fill="#22c55e"/><text x="756" y="54" class="legend-text" dominant-baseline="central">Source Code</text>
<text x="80" y="62" class="chart-title">Raw Token Compression %</text>
<line x1="80" y1="370" x2="870" y2="370" stroke="#cbd5e1" stroke-width="2"/>
<text x="72" y="370" class="axis-label" text-anchor="end" dominant-baseline="central">0%</text>
<line x1="80" y1="332" x2="870" y2="332" stroke="#e2e8f0" stroke-width="1"/>
<text x="72" y="332" class="axis-label" text-anchor="end" dominant-baseline="central">10%</text>
<line x1="80" y1="295" x2="870" y2="295" stroke="#e2e8f0" stroke-width="1"/>
<text x="72" y="295" class="axis-label" text-anchor="end" dominant-baseline="central">20%</text>
<line x1="80" y1="257" x2="870" y2="257" stroke="#e2e8f0" stroke-width="1"/>
<text x="72" y="257" class="axis-label" text-anchor="end" dominant-baseline="central">30%</text>
<line x1="80" y1="220" x2="870" y2="220" stroke="#e2e8f0" stroke-width="1"/>
<text x="72" y="220" class="axis-label" text-anchor="end" dominant-baseline="central">40%</text>
<line x1="80" y1="182" x2="870" y2="182" stroke="#e2e8f0" stroke-width="1"/>
<text x="72" y="182" class="axis-label" text-anchor="end" dominant-baseline="central">50%</text>
<line x1="80" y1="145" x2="870" y2="145" stroke="#e2e8f0" stroke-width="1"/>
<text x="72" y="145" class="axis-label" text-anchor="end" dominant-baseline="central">60%</text>
<line x1="80" y1="107" x2="870" y2="107" stroke="#e2e8f0" stroke-width="1"/>
<text x="72" y="107" class="axis-label" text-anchor="end" dominant-baseline="central">70%</text>
<line x1="80" y1="70" x2="870" y2="70" stroke="#e2e8f0" stroke-width="1"/>
<text x="72" y="70" class="axis-label" text-anchor="end" dominant-baseline="central">80%</text>
<line x1="115" y1="70" x2="115" y2="370" stroke="#e2e8f0" stroke-width="1"/>
<text x="115" y="388" class="axis-label" text-anchor="middle">1</text>
<line x1="259" y1="70" x2="259" y2="370" stroke="#e2e8f0" stroke-width="1"/>
<text x="259" y="388" class="axis-label" text-anchor="middle">5</text>
<line x1="439" y1="70" x2="439" y2="370" stroke="#e2e8f0" stroke-width="1"/>
<text x="439" y="388" class="axis-label" text-anchor="middle">10</text>
<line x1="618" y1="70" x2="618" y2="370" stroke="#e2e8f0" stroke-width="1"/>
<text x="618" y="388" class="axis-label" text-anchor="middle">15</text>
<line x1="798" y1="70" x2="798" y2="370" stroke="#e2e8f0" stroke-width="1"/>
<text x="798" y="388" class="axis-label" text-anchor="middle">20</text>
<text x="475" y="408" class="axis-title" text-anchor="middle">Number of pages / files</text>
<text x="20" y="220" class="axis-title" text-anchor="middle" transform="rotate(-90 20 220)">Token savings (%)</text>
<line x1="80" y1="70" x2="80" y2="370" stroke="#64748b" stroke-width="2"/>
<line x1="80" y1="370" x2="870" y2="370" stroke="#64748b" stroke-width="2"/>
<polyline points="115,192 259,99 439,83 618,78 798,76" fill="none" stroke="#3b82f6" stroke-width="2.5" stroke-linejoin="round"/>
<circle cx="115" cy="192" r="4" fill="#3b82f6" stroke="white" stroke-width="1.5"/>
<text x="115" y="182" class="data-label" fill="#3b82f6" text-anchor="start">+47.3%</text>
<circle cx="259" cy="99" r="4" fill="#3b82f6" stroke="white" stroke-width="1.5"/>
<circle cx="439" cy="83" r="4" fill="#3b82f6" stroke="white" stroke-width="1.5"/>
<circle cx="618" cy="78" r="4" fill="#3b82f6" stroke="white" stroke-width="1.5"/>
<circle cx="798" cy="76" r="4" fill="#3b82f6" stroke="white" stroke-width="1.5"/>
<text x="798" y="66" class="data-label" fill="#3b82f6" text-anchor="end">+78.4%</text>
<polyline points="115,209 259,209 439,209 618,210 798,210" fill="none" stroke="#f59e0b" stroke-width="2.5" stroke-linejoin="round"/>
<circle cx="115" cy="209" r="4" fill="#f59e0b" stroke="white" stroke-width="1.5"/>
<text x="115" y="199" class="data-label" fill="#f59e0b" text-anchor="start">+42.7%</text>
<circle cx="259" cy="209" r="4" fill="#f59e0b" stroke="white" stroke-width="1.5"/>
<circle cx="439" cy="209" r="4" fill="#f59e0b" stroke="white" stroke-width="1.5"/>
<circle cx="618" cy="210" r="4" fill="#f59e0b" stroke="white" stroke-width="1.5"/>
<circle cx="798" cy="210" r="4" fill="#f59e0b" stroke="white" stroke-width="1.5"/>
<text x="798" y="200" class="data-label" fill="#f59e0b" text-anchor="end">+42.6%</text>
<polyline points="115,338 259,343 439,342 618,342 798,342" fill="none" stroke="#22c55e" stroke-width="2.5" stroke-linejoin="round"/>
<circle cx="115" cy="338" r="4" fill="#22c55e" stroke="white" stroke-width="1.5"/>
<text x="115" y="328" class="data-label" fill="#22c55e" text-anchor="start">+8.3%</text>
<circle cx="259" cy="343" r="4" fill="#22c55e" stroke="white" stroke-width="1.5"/>
<circle cx="439" cy="342" r="4" fill="#22c55e" stroke="white" stroke-width="1.5"/>
<circle cx="618" cy="342" r="4" fill="#22c55e" stroke="white" stroke-width="1.5"/>
<circle cx="798" cy="342" r="4" fill="#22c55e" stroke="white" stroke-width="1.5"/>
<text x="798" y="332" class="data-label" fill="#22c55e" text-anchor="end">+7.2%</text>
<text x="80" y="462" class="chart-title">Net Token Savings (system prompt amortized over 10 messages)</text>
<line x1="80" y1="770" x2="870" y2="770" stroke="#e2e8f0" stroke-width="1"/>
<text x="72" y="770" class="axis-label" text-anchor="end" dominant-baseline="central">-10%</text>
<line x1="80" y1="703" x2="870" y2="703" stroke="#e2e8f0" stroke-width="1"/>
<text x="72" y="703" class="axis-label" text-anchor="end" dominant-baseline="central">10%</text>
<line x1="80" y1="636" x2="870" y2="636" stroke="#e2e8f0" stroke-width="1"/>
<text x="72" y="636" class="axis-label" text-anchor="end" dominant-baseline="central">30%</text>
<line x1="80" y1="570" x2="870" y2="570" stroke="#e2e8f0" stroke-width="1"/>
<text x="72" y="570" class="axis-label" text-anchor="end" dominant-baseline="central">50%</text>
<line x1="80" y1="503" x2="870" y2="503" stroke="#e2e8f0" stroke-width="1"/>
<text x="72" y="503" class="axis-label" text-anchor="end" dominant-baseline="central">70%</text>
<line x1="115" y1="470" x2="115" y2="770" stroke="#e2e8f0" stroke-width="1"/>
<text x="115" y="788" class="axis-label" text-anchor="middle">1</text>
<line x1="259" y1="470" x2="259" y2="770" stroke="#e2e8f0" stroke-width="1"/>
<text x="259" y="788" class="axis-label" text-anchor="middle">5</text>
<line x1="439" y1="470" x2="439" y2="770" stroke="#e2e8f0" stroke-width="1"/>
<text x="439" y="788" class="axis-label" text-anchor="middle">10</text>
<line x1="618" y1="470" x2="618" y2="770" stroke="#e2e8f0" stroke-width="1"/>
<text x="618" y="788" class="axis-label" text-anchor="middle">15</text>
<line x1="798" y1="470" x2="798" y2="770" stroke="#e2e8f0" stroke-width="1"/>
<text x="798" y="788" class="axis-label" text-anchor="middle">20</text>
<text x="475" y="808" class="axis-title" text-anchor="middle">Number of pages / files</text>
<text x="20" y="620" class="axis-title" text-anchor="middle" transform="rotate(-90 20 620)">Net token savings (%)</text>
<line x1="80" y1="470" x2="80" y2="770" stroke="#64748b" stroke-width="2"/>
<line x1="80" y1="770" x2="870" y2="770" stroke="#64748b" stroke-width="2"/>
<polyline points="115,579 259,496 439,482 618,477 798,475" fill="none" stroke="#3b82f6" stroke-width="2.5" stroke-linejoin="round"/>
<circle cx="115" cy="579" r="4" fill="#3b82f6" stroke="white" stroke-width="1.5"/>
<text x="115" y="569" class="data-label" fill="#3b82f6" text-anchor="start">+47.0%</text>
<circle cx="259" cy="496" r="4" fill="#3b82f6" stroke="white" stroke-width="1.5"/>
<circle cx="439" cy="482" r="4" fill="#3b82f6" stroke="white" stroke-width="1.5"/>
<circle cx="618" cy="477" r="4" fill="#3b82f6" stroke="white" stroke-width="1.5"/>
<circle cx="798" cy="475" r="4" fill="#3b82f6" stroke="white" stroke-width="1.5"/>
<text x="798" y="465" class="data-label" fill="#3b82f6" text-anchor="end">+78.4%</text>
<polyline points="115,594 259,594 439,594 618,594 798,594" fill="none" stroke="#f59e0b" stroke-width="2.5" stroke-linejoin="round"/>
<circle cx="115" cy="594" r="4" fill="#f59e0b" stroke="white" stroke-width="1.5"/>
<text x="115" y="584" class="data-label" fill="#f59e0b" text-anchor="start">+42.7%</text>
<circle cx="259" cy="594" r="4" fill="#f59e0b" stroke="white" stroke-width="1.5"/>
<circle cx="439" cy="594" r="4" fill="#f59e0b" stroke="white" stroke-width="1.5"/>
<circle cx="618" cy="594" r="4" fill="#f59e0b" stroke="white" stroke-width="1.5"/>
<circle cx="798" cy="594" r="4" fill="#f59e0b" stroke="white" stroke-width="1.5"/>
<text x="798" y="584" class="data-label" fill="#f59e0b" text-anchor="end">+42.6%</text>
<polyline points="115,722 259,715 439,713 618,713 798,713" fill="none" stroke="#22c55e" stroke-width="2.5" stroke-linejoin="round"/>
<circle cx="115" cy="722" r="4" fill="#22c55e" stroke="white" stroke-width="1.5"/>
<text x="115" y="712" class="data-label" fill="#22c55e" text-anchor="start">+4.3%</text>
<circle cx="259" cy="715" r="4" fill="#22c55e" stroke="white" stroke-width="1.5"/>
<circle cx="439" cy="713" r="4" fill="#22c55e" stroke="white" stroke-width="1.5"/>
<circle cx="618" cy="713" r="4" fill="#22c55e" stroke="white" stroke-width="1.5"/>
<circle cx="798" cy="713" r="4" fill="#22c55e" stroke="white" stroke-width="1.5"/>
<text x="798" y="703" class="data-label" fill="#22c55e" text-anchor="end">+7.1%</text>
<rect x="80" y="810" width="790" height="75" rx="6" fill="#f8fafc" stroke="#e2e8f0" stroke-width="1"/>
<text x="92" y="828" class="summary-title">At 20 pages/files:</text>
<text x="92" y="846" class="summary-text" fill="#3b82f6">HTML Pages: 78% raw / +78% net (85,786 tok saved)</text>
<text x="355" y="846" class="summary-text" fill="#f59e0b">JSON Responses: 43% raw / +43% net (337,614 tok saved)</text>
<text x="618" y="846" class="summary-text" fill="#22c55e">Source Code: 7% raw / +7% net (3,027 tok saved)</text>
<text x="92" y="868" class="note">Token counts: tiktoken cl100k_base · "Raw" = compression only · "Net" = after system prompt overhead amortized over 10 messages per conversation</text>
</svg>
