<svg xmlns="http://www.w3.org/2000/svg" width="900" height="880" viewBox="0 0 900 880">
<rect width="900" height="880" fill="#ffffff"/>
<style>
    .title { font-family: Arial, Helvetica, sans-serif; font-size: 18px; font-weight: bold; fill: #1e293b; }
    .chart-title { font-family: Arial, Helvetica, sans-serif; font-size: 14px; font-weight: bold; fill: #1e293b; }
    .subtitle { font-family: Arial, Helvetica, sans-serif; font-size: 11px; fill: #64748b; }
    .axis-label { font-family: Arial, Helvetica, sans-serif; font-size: 11px; fill: #64748b; }
    .axis-title { font-family: Arial, Helvetica, sans-serif; font-size: 12px; fill: #1e293b; font-weight: bold; }
    .legend-text { font-family: Arial, Helvetica, sans-serif; font-size: 11px; fill: #1e293b; }
    .note { font-family: Arial, Helvetica, sans-serif; font-size: 10px; fill: #64748b; font-style: italic; }
    .data-label { font-family: Arial, Helvetica, sans-serif; font-size: 10px; font-weight: bold; }
    .summary-title { font-family: Arial, Helvetica, sans-serif; font-size: 12px; font-weight: bold; fill: #1e293b; }
    .summary-text { font-family: Arial, Helvetica, sans-serif; font-size: 11px; fill: #1e293b; }
  </style>
<text x="80" y="25" class="title">UCCP Compression: Token Savings Benchmark</text>
<text x="80" y="42" class="subtitle">Measured with tiktoken cl100k_base on realistic generated test data</text>
<line x1="730" y1="18" x2="750" y2="18" stroke="#3b82f6" stroke-width="3"/><circle cx="740" cy="18" r="3" fill="#3b82f6"/><text x="756" y="18" class="legend-text" dominant-baseline="central">HTML Pages</text>
<line x1="730" y1="36" x2="750" y2="36" stroke="#f59e0b" stroke-width="3"/><circle cx="740" cy="36" r="3" fill="#f59e0b"/><text x="756" y="36" class="legend-text" dominant-baseline="central">JSON Responses</text>
<line x1="730" y1="54" x2="750" y2="54" stroke="#22c55e" stroke-width="3"/><circle cx="740" cy="54" r="3" fill="#22c55e"/><text x="756" y="54" class="legend-text" dominant-baseline="central">Source Code</text>
<text x="80" y="62" class="chart-title">Raw Token Compression %</text>
<line x1="80" y1="370" x2="870" y2="370" stroke="#cbd5e1" stroke-width="2"/>
<text x="72" y="370" class="axis-label" text-anchor="end" dominant-baseline="central">0%</text>
<line x1="80" y1="310" x2="870" y2="310" stroke="#e2e8f0" stroke-width="1"/>
<text x="72" y="310" class="axis-label" text-anchor="end" dominant-baseline="central">10%</text>
<line x1="80" y1="250" x2="870" y2="250" stroke="#e2e8f0" stroke-width="1"/>
<text x="72" y="250" class="axis-label" text-anchor="end" dominant-baseline="central">20%</text>
<line x1="80" y1="190" x2="870" y2="190" stroke="#e2e8f0" stroke-width="1"/>
<text x="72" y="190" class="axis-label" text-anchor="end" dominant-baseline="central">30%</text>
<line x1="80" y1="130" x2="870" y2="130" stroke="#e2e8f0" stroke-width="1"/>
<text x="72" y="130" class="axis-label" text-anchor="end" dominant-baseline="central">40%</text>
<line x1="80" y1="70" x2="870" y2="70" stroke="#e2e8f0" stroke-width="1"/>
<text x="72" y="70" class="axis-label" text-anchor="end" dominant-baseline="central">50%</text>
<line x1="115" y1="70" x2="115" y2="370" stroke="#e2e8f0" stroke-width="1"/>
<text x="115" y="388" class="axis-label" text-anchor="middle">1</text>
<line x1="259" y1="70" x2="259" y2="370" stroke="#e2e8f0" stroke-width="1"/>
<text x="259" y="388" class="axis-label" text-anchor="middle">5</text>
<line x1="439" y1="70" x2="439" y2="370" stroke="#e2e8f0" stroke-width="1"/>
<text x="439" y="388" class="axis-label" text-anchor="middle">10</text>
<line x1="618" y1="70" x2="618" y2="370" stroke="#e2e8f0" stroke-width="1"/>
<text x="618" y="388" class="axis-label" text-anchor="middle">15</text>
<line x1="798" y1="70" x2="798" y2="370" stroke="#e2e8f0" stroke-width="1"/>
<text x="798" y="388" class="axis-label" text-anchor="middle">20</text>
<text x="475" y="408" class="axis-title" text-anchor="middle">Number of pages / files</text>
<text x="20" y="220" class="axis-title" text-anchor="middle" transform="rotate(-90 20 220)">Token savings (%)</text>
<line x1="80" y1="70" x2="80" y2="370" stroke="#64748b" stroke-width="2"/>
<line x1="80" y1="370" x2="870" y2="370" stroke="#64748b" stroke-width="2"/>
<polyline points="115,345 259,345 439,344 618,344 798,344" fill="none" stroke="#3b82f6" stroke-width="2.5" stroke-linejoin="round"/>
<circle cx="115" cy="345" r="4" fill="#3b82f6" stroke="white" stroke-width="1.5"/>
<text x="115" y="335" class="data-label" fill="#3b82f6" text-anchor="start">+4.1%</text>
<circle cx="259" cy="345" r="4" fill="#3b82f6" stroke="white" stroke-width="1.5"/>
<circle cx="439" cy="344" r="4" fill="#3b82f6" stroke="white" stroke-width="1.5"/>
<circle cx="618" cy="344" r="4" fill="#3b82f6" stroke="white" stroke-width="1.5"/>
<circle cx="798" cy="344" r="4" fill="#3b82f6" stroke="white" stroke-width="1.5"/>
<text x="798" y="334" class="data-label" fill="#3b82f6" text-anchor="end">+4.2%</text>
<polyline points="115,113 259,113 439,113 618,114 798,114" fill="none" stroke="#f59e0b" stroke-width="2.5" stroke-linejoin="round"/>
<circle cx="115" cy="113" r="4" fill="#f59e0b" stroke="white" stroke-width="1.5"/>
<text x="115" y="103" class="data-label" fill="#f59e0b" text-anchor="start">+42.7%</text>
<circle cx="259" cy="113" r="4" fill="#f59e0b" stroke="white" stroke-width="1.5"/>
<circle cx="439" cy="113" r="4" fill="#f59e0b" stroke="white" stroke-width="1.5"/>
<circle cx="618" cy="114" r="4" fill="#f59e0b" stroke="white" stroke-width="1.5"/>
<circle cx="798" cy="114" r="4" fill="#f59e0b" stroke="white" stroke-width="1.5"/>
<text x="798" y="104" class="data-label" fill="#f59e0b" text-anchor="end">+42.6%</text>
<polyline points="115,319 259,328 439,325 618,326 798,326" fill="none" stroke="#22c55e" stroke-width="2.5" stroke-linejoin="round"/>
<circle cx="115" cy="319" r="4" fill="#22c55e" stroke="white" stroke-width="1.5"/>
<text x="115" y="309" class="data-label" fill="#22c55e" text-anchor="start">+8.3%</text>
<circle cx="259" cy="328" r="4" fill="#22c55e" stroke="white" stroke-width="1.5"/>
<circle cx="439" cy="325" r="4" fill="#22c55e" stroke="white" stroke-width="1.5"/>
<circle cx="618" cy="326" r="4" fill="#22c55e" stroke="white" stroke-width="1.5"/>
<circle cx="798" cy="326" r="4" fill="#22c55e" stroke="white" stroke-width="1.5"/>
<text x="798" y="316" class="data-label" fill="#22c55e" text-anchor="end">+7.3%</text>
<text x="80" y="462" class="chart-title">Net Token Savings (system prompt amortized over 10 messages)</text>
<line x1="80" y1="770" x2="870" y2="770" stroke="#e2e8f0" stroke-width="1"/>
<text x="72" y="770" class="axis-label" text-anchor="end" dominant-baseline="central">-10%</text>
<line x1="80" y1="720" x2="870" y2="720" stroke="#cbd5e1" stroke-width="2"/>
<text x="72" y="720" class="axis-label" text-anchor="end" dominant-baseline="central">0%</text>
<line x1="80" y1="670" x2="870" y2="670" stroke="#e2e8f0" stroke-width="1"/>
<text x="72" y="670" class="axis-label" text-anchor="end" dominant-baseline="central">10%</text>
<line x1="80" y1="620" x2="870" y2="620" stroke="#e2e8f0" stroke-width="1"/>
<text x="72" y="620" class="axis-label" text-anchor="end" dominant-baseline="central">20%</text>
<line x1="80" y1="570" x2="870" y2="570" stroke="#e2e8f0" stroke-width="1"/>
<text x="72" y="570" class="axis-label" text-anchor="end" dominant-baseline="central">30%</text>
<line x1="80" y1="520" x2="870" y2="520" stroke="#e2e8f0" stroke-width="1"/>
<text x="72" y="520" class="axis-label" text-anchor="end" dominant-baseline="central">40%</text>
<line x1="80" y1="470" x2="870" y2="470" stroke="#e2e8f0" stroke-width="1"/>
<text x="72" y="470" class="axis-label" text-anchor="end" dominant-baseline="central">50%</text>
<line x1="115" y1="470" x2="115" y2="770" stroke="#e2e8f0" stroke-width="1"/>
<text x="115" y="788" class="axis-label" text-anchor="middle">1</text>
<line x1="259" y1="470" x2="259" y2="770" stroke="#e2e8f0" stroke-width="1"/>
<text x="259" y="788" class="axis-label" text-anchor="middle">5</text>
<line x1="439" y1="470" x2="439" y2="770" stroke="#e2e8f0" stroke-width="1"/>
<text x="439" y="788" class="axis-label" text-anchor="middle">10</text>
<line x1="618" y1="470" x2="618" y2="770" stroke="#e2e8f0" stroke-width="1"/>
<text x="618" y="788" class="axis-label" text-anchor="middle">15</text>
<line x1="798" y1="470" x2="798" y2="770" stroke="#e2e8f0" stroke-width="1"/>
<text x="798" y="788" class="axis-label" text-anchor="middle">20</text>
<text x="475" y="808" class="axis-title" text-anchor="middle">Number of pages / files</text>
<text x="20" y="620" class="axis-title" text-anchor="middle" transform="rotate(-90 20 620)">Net token savings (%)</text>
<line x1="80" y1="470" x2="80" y2="770" stroke="#64748b" stroke-width="2"/>
<line x1="80" y1="770" x2="870" y2="770" stroke="#64748b" stroke-width="2"/>
<polyline points="115,701 259,699 439,699 618,699 798,699" fill="none" stroke="#3b82f6" stroke-width="2.5" stroke-linejoin="round"/>
<circle cx="115" cy="701" r="4" fill="#3b82f6" stroke="white" stroke-width="1.5"/>
<text x="115" y="691" class="data-label" fill="#3b82f6" text-anchor="start">+3.7%</text>
<circle cx="259" cy="699" r="4" fill="#3b82f6" stroke="white" stroke-width="1.5"/>
<circle cx="439" cy="699" r="4" fill="#3b82f6" stroke="white" stroke-width="1.5"/>
<circle cx="618" cy="699" r="4" fill="#3b82f6" stroke="white" stroke-width="1.5"/>
<circle cx="798" cy="699" r="4" fill="#3b82f6" stroke="white" stroke-width="1.5"/>
<text x="798" y="689" class="data-label" fill="#3b82f6" text-anchor="end">+4.2%</text>
<polyline points="115,506 259,506 439,506 618,506 798,507" fill="none" stroke="#f59e0b" stroke-width="2.5" stroke-linejoin="round"/>
<circle cx="115" cy="506" r="4" fill="#f59e0b" stroke="white" stroke-width="1.5"/>
<text x="115" y="496" class="data-label" fill="#f59e0b" text-anchor="start">+42.7%</text>
<circle cx="259" cy="506" r="4" fill="#f59e0b" stroke="white" stroke-width="1.5"/>
<circle cx="439" cy="506" r="4" fill="#f59e0b" stroke="white" stroke-width="1.5"/>
<circle cx="618" cy="506" r="4" fill="#f59e0b" stroke="white" stroke-width="1.5"/>
<circle cx="798" cy="507" r="4" fill="#f59e0b" stroke="white" stroke-width="1.5"/>
<text x="798" y="497" class="data-label" fill="#f59e0b" text-anchor="end">+42.6%</text>
<polyline points="115,698 259,688 439,684 618,684 798,684" fill="none" stroke="#22c55e" stroke-width="2.5" stroke-linejoin="round"/>
<circle cx="115" cy="698" r="4" fill="#22c55e" stroke="white" stroke-width="1.5"/>
<text x="115" y="688" class="data-label" fill="#22c55e" text-anchor="start">+4.3%</text>
<circle cx="259" cy="688" r="4" fill="#22c55e" stroke="white" stroke-width="1.5"/>
<circle cx="439" cy="684" r="4" fill="#22c55e" stroke="white" stroke-width="1.5"/>
<circle cx="618" cy="684" r="4" fill="#22c55e" stroke="white" stroke-width="1.5"/>
<circle cx="798" cy="684" r="4" fill="#22c55e" stroke="white" stroke-width="1.5"/>
<text x="798" y="674" class="data-label" fill="#22c55e" text-anchor="end">+7.1%</text>
<rect x="80" y="810" width="790" height="75" rx="6" fill="#f8fafc" stroke="#e2e8f0" stroke-width="1"/>
<text x="92" y="828" class="summary-title">At 20 pages/files:</text>
<text x="92" y="846" class="summary-text" fill="#3b82f6">HTML Pages: 4% raw / +4% net (4,565 tok saved)</text>
<text x="355" y="846" class="summary-text" fill="#f59e0b">JSON Responses: 43% raw / +43% net (337,614 tok saved)</text>
<text x="618" y="846" class="summary-text" fill="#22c55e">Source Code: 7% raw / +7% net (3,034 tok saved)</text>
<text x="92" y="868" class="note">Token counts: tiktoken cl100k_base · "Raw" = compression only · "Net" = after system prompt overhead amortized over 10 messages per conversation</text>
</svg>
