<svg xmlns="http://www.w3.org/2000/svg" width="900" height="540" viewBox="0 0 900 540">
<rect width="900" height="540" fill="#ffffff"/>
<style>
    .title { font-family: Arial, Helvetica, sans-serif; font-size: 18px; font-weight: bold; fill: #1e293b; }
    .subtitle { font-family: Arial, Helvetica, sans-serif; font-size: 12px; fill: #64748b; }
    .axis-label { font-family: Arial, Helvetica, sans-serif; font-size: 11px; fill: #64748b; }
    .axis-title { font-family: Arial, Helvetica, sans-serif; font-size: 12px; fill: #1e293b; font-weight: bold; }
    .legend-text { font-family: Arial, Helvetica, sans-serif; font-size: 11px; fill: #1e293b; }
    .note { font-family: Arial, Helvetica, sans-serif; font-size: 10px; fill: #64748b; font-style: italic; }
    .data-label { font-family: Arial, Helvetica, sans-serif; font-size: 10px; font-weight: bold; }
  </style>
<text x="80" y="30" class="title">UCCP Compression: Token Savings at Scale</text>
<text x="80" y="48" class="subtitle">Net token savings (%) vs content size — measured with tiktoken cl100k_base (includes system prompt overhead)</text>
<line x1="730" y1="18" x2="750" y2="18" stroke="#3b82f6" stroke-width="3"/><circle cx="740" cy="18" r="3" fill="#3b82f6"/><text x="756" y="18" class="legend-text" dominant-baseline="central">HTML Pages</text>
<line x1="730" y1="36" x2="750" y2="36" stroke="#f59e0b" stroke-width="3"/><circle cx="740" cy="36" r="3" fill="#f59e0b"/><text x="756" y="36" class="legend-text" dominant-baseline="central">JSON Responses</text>
<line x1="730" y1="54" x2="750" y2="54" stroke="#22c55e" stroke-width="3"/><circle cx="740" cy="54" r="3" fill="#22c55e"/><text x="756" y="54" class="legend-text" dominant-baseline="central">Source Code</text>
<line x1="80" y1="420" x2="870" y2="420" stroke="#e2e8f0" stroke-width="1"/>
<text x="72" y="420" class="axis-label" text-anchor="end" dominant-baseline="central">-40%</text>
<line x1="80" y1="363" x2="870" y2="363" stroke="#e2e8f0" stroke-width="1"/>
<text x="72" y="363" class="axis-label" text-anchor="end" dominant-baseline="central">-30%</text>
<line x1="80" y1="306" x2="870" y2="306" stroke="#e2e8f0" stroke-width="1"/>
<text x="72" y="306" class="axis-label" text-anchor="end" dominant-baseline="central">-20%</text>
<line x1="80" y1="250" x2="870" y2="250" stroke="#e2e8f0" stroke-width="1"/>
<text x="72" y="250" class="axis-label" text-anchor="end" dominant-baseline="central">-10%</text>
<line x1="80" y1="193" x2="870" y2="193" stroke="#cbd5e1" stroke-width="2"/>
<text x="72" y="193" class="axis-label" text-anchor="end" dominant-baseline="central">0%</text>
<line x1="80" y1="136" x2="870" y2="136" stroke="#e2e8f0" stroke-width="1"/>
<text x="72" y="136" class="axis-label" text-anchor="end" dominant-baseline="central">10%</text>
<line x1="80" y1="80" x2="870" y2="80" stroke="#e2e8f0" stroke-width="1"/>
<text x="72" y="80" class="axis-label" text-anchor="end" dominant-baseline="central">20%</text>
<line x1="115" y1="80" x2="115" y2="420" stroke="#e2e8f0" stroke-width="1"/>
<text x="115" y="438" class="axis-label" text-anchor="middle">1</text>
<line x1="259" y1="80" x2="259" y2="420" stroke="#e2e8f0" stroke-width="1"/>
<text x="259" y="438" class="axis-label" text-anchor="middle">5</text>
<line x1="439" y1="80" x2="439" y2="420" stroke="#e2e8f0" stroke-width="1"/>
<text x="439" y="438" class="axis-label" text-anchor="middle">10</text>
<line x1="618" y1="80" x2="618" y2="420" stroke="#e2e8f0" stroke-width="1"/>
<text x="618" y="438" class="axis-label" text-anchor="middle">15</text>
<line x1="798" y1="80" x2="798" y2="420" stroke="#e2e8f0" stroke-width="1"/>
<text x="798" y="438" class="axis-label" text-anchor="middle">20</text>
<text x="475" y="458" class="axis-title" text-anchor="middle">Number of pages / files</text>
<text x="20" y="250" class="axis-title" text-anchor="middle" transform="rotate(-90 20 250)">Net token savings (%)</text>
<line x1="80" y1="80" x2="80" y2="420" stroke="#64748b" stroke-width="2"/>
<line x1="80" y1="420" x2="870" y2="420" stroke="#64748b" stroke-width="2"/>
<polyline points="115,190 259,173 439,171 618,171 798,170" fill="none" stroke="#3b82f6" stroke-width="2.5" stroke-linejoin="round"/>
<circle cx="115" cy="190" r="4" fill="#3b82f6" stroke="white" stroke-width="1.5"/>
<text x="115" y="180" class="data-label" fill="#3b82f6" text-anchor="start">+0.5%</text>
<circle cx="259" cy="173" r="4" fill="#3b82f6" stroke="white" stroke-width="1.5"/>
<circle cx="439" cy="171" r="4" fill="#3b82f6" stroke="white" stroke-width="1.5"/>
<circle cx="618" cy="171" r="4" fill="#3b82f6" stroke="white" stroke-width="1.5"/>
<circle cx="798" cy="170" r="4" fill="#3b82f6" stroke="white" stroke-width="1.5"/>
<text x="798" y="160" class="data-label" fill="#3b82f6" text-anchor="end">+4.0%</text>
<polyline points="115,143 259,134 439,133 618,133 798,133" fill="none" stroke="#f59e0b" stroke-width="2.5" stroke-linejoin="round"/>
<circle cx="115" cy="143" r="4" fill="#f59e0b" stroke="white" stroke-width="1.5"/>
<text x="115" y="133" class="data-label" fill="#f59e0b" text-anchor="start">+8.8%</text>
<circle cx="259" cy="134" r="4" fill="#f59e0b" stroke="white" stroke-width="1.5"/>
<circle cx="439" cy="133" r="4" fill="#f59e0b" stroke="white" stroke-width="1.5"/>
<circle cx="618" cy="133" r="4" fill="#f59e0b" stroke="white" stroke-width="1.5"/>
<circle cx="798" cy="133" r="4" fill="#f59e0b" stroke="white" stroke-width="1.5"/>
<text x="798" y="123" class="data-label" fill="#f59e0b" text-anchor="end">+10.6%</text>
<polyline points="115,380 259,199 439,177 618,170 798,167" fill="none" stroke="#22c55e" stroke-width="2.5" stroke-linejoin="round"/>
<circle cx="115" cy="380" r="4" fill="#22c55e" stroke="white" stroke-width="1.5"/>
<text x="115" y="370" class="data-label" fill="#22c55e" text-anchor="start">-33.0%</text>
<circle cx="259" cy="199" r="4" fill="#22c55e" stroke="white" stroke-width="1.5"/>
<circle cx="439" cy="177" r="4" fill="#22c55e" stroke="white" stroke-width="1.5"/>
<circle cx="618" cy="170" r="4" fill="#22c55e" stroke="white" stroke-width="1.5"/>
<circle cx="798" cy="167" r="4" fill="#22c55e" stroke="white" stroke-width="1.5"/>
<text x="798" y="157" class="data-label" fill="#22c55e" text-anchor="end">+4.5%</text>
<rect x="80" y="475" width="790" height="70" rx="6" fill="#f8fafc" stroke="#e2e8f0" stroke-width="1"/>
<text x="92" y="493" class="axis-title">At 20 pages/files:</text>
<text x="92" y="511" class="axis-label" fill="#3b82f6">HTML Pages: +4.0% net (4,390 tokens)</text>
<text x="355" y="511" class="axis-label" fill="#f59e0b">JSON Responses: +10.6% net (83,735 tokens)</text>
<text x="618" y="511" class="axis-label" fill="#22c55e">Source Code: +4.5% net (1,946 tokens)</text>
<text x="92" y="531" class="note">Token counts measured with tiktoken cl100k_base · net savings include one-time system prompt overhead per domain</text>
</svg>
